# xmcd CD database file
#
# Track frame offsets:
#	150
#	26686
#	50470
#	70465
#	91707
#	106706
#	126735
#	154964
#	172355
#	191365
#	213112
#	238146
#	254279
#	285375
#
# Disc length: 4265 seconds
#
# Revision: 0
# Processed by: cddbd v1.5.2PL0 Copyright (c) Steve Scherf et al.
# Submitted via: CDex 1.70beta2
#
DISCID=c910a70e
DTITLE=Keith Urban - LOVE, PAIN AND THE WHOLE CRAZY THINGS
DYEAR=2007
DGENRE=Country
TTITLE0=Once In A Lifetime
TTITLE1=Shine
TTITLE2=I Told You So
TTITLE3=I Can't Stop Loving You
TTITLE4=Won't Let You Down
TTITLE5=Faster Car
TTITLE6=Stupid Boy
TTITLE7=Used To The Pain
TTITLE8=Tu Compania
TTITLE9=God Made Woman
TTITLE10=Everybody
TTITLE11=Got It Right This Time
TTITLE12=Got To Let It Go
TTITLE13=Once In A Lifetime (video)
EXTD=YEAR: 2007
EXTT0=
EXTT1=
EXTT2=
EXTT3=
EXTT4=
EXTT5=
EXTT6=
EXTT7=
EXTT8=
EXTT9=
EXTT10=
EXTT11=
EXTT12=
EXTT13=
PLAYORDER=
